<?xml version="1.0" encoding="UTF-8"?>
<svg id="circulaire" xmlns="http://www.w3.org/2000/svg" viewBox="0 0 500 500">
  <defs>
    <style>
      .cls-1, .cls-2, .cls-3 {
        fill: #fff;
      }

      .cls-4 {
        fill: #bc0000;
      }

      .cls-2 {
        letter-spacing: .13em;
      }

      .cls-2, .cls-3 {
        font-family: DINCondensed-Bold, 'DIN Condensed';
        font-size: 68.4px;
        font-weight: 700;
      }

      .cls-5 {
        letter-spacing: .13em;
      }
    </style>
  </defs>
  <circle cx="250.1" cy="249.9" r="249.9"/>
  <g id="texte">
    <text class="cls-3" transform="translate(155.64 376.99)"><tspan class="cls-5" x="0" y="0">GOUR</tspan><tspan x="151.31" y="0">M</tspan></text>
    <g>
      <path class="cls-4" d="M167.34,445.29v-48.7h20.79v6.57h-13.82v14.3h12.04v6.57h-12.04v14.3h13.82v6.98h-20.79Z"/>
      <path class="cls-4" d="M201.26,445.29v-48.7h10.33c4.01,0,7.06,1.09,9.13,3.28,2.08,2.19,3.11,5.29,3.11,9.3v22.78c0,4.56-1.11,7.92-3.32,10.09-2.21,2.17-5.39,3.25-9.54,3.25h-9.71Zm6.98-42.14v35.57h3.21c1.96,0,3.35-.49,4.17-1.47,.82-.98,1.23-2.52,1.23-4.62v-23.46c0-1.92-.39-3.4-1.16-4.45s-2.19-1.57-4.24-1.57h-3.21Z"/>
      <path class="cls-4" d="M239.02,445.29v-48.7h6.98v20.86h8.62v-20.86h6.98v48.7h-6.98v-21.68h-8.62v21.68h-6.98Z"/>
      <path class="cls-4" d="M276.78,445.29v-48.7h20.79v6.57h-13.82v14.3h12.04v6.57h-12.04v14.3h13.82v6.98h-20.79Z"/>
      <path class="cls-4" d="M332.87,431.4v3.01c0,1.5-.28,2.93-.85,4.28-.57,1.35-1.36,2.54-2.36,3.59-1,1.05-2.18,1.88-3.52,2.5-1.35,.62-2.79,.92-4.34,.92-1.32,0-2.67-.18-4.04-.55-1.37-.36-2.6-1-3.69-1.92-1.09-.91-2-2.09-2.7-3.52-.71-1.44-1.06-3.27-1.06-5.51v-26.82c0-1.6,.27-3.08,.82-4.45s1.32-2.55,2.32-3.56c1-1,2.2-1.79,3.59-2.36,1.39-.57,2.93-.86,4.62-.86,3.28,0,5.95,1.07,8,3.21,1,1.05,1.79,2.29,2.36,3.73,.57,1.44,.85,3,.85,4.69v2.74h-6.98v-2.32c0-1.37-.39-2.55-1.16-3.56-.78-1-1.82-1.5-3.15-1.5-1.73,0-2.88,.54-3.45,1.61-.57,1.07-.86,2.43-.86,4.07v24.9c0,1.41,.31,2.6,.92,3.56,.62,.96,1.72,1.44,3.32,1.44,.45,0,.95-.08,1.47-.24,.52-.16,1.01-.42,1.47-.79,.41-.36,.75-.87,1.03-1.51,.27-.64,.41-1.44,.41-2.39v-2.39h6.98Z"/>
    </g>
    <text class="cls-2" transform="translate(346.26 376.71)"><tspan x="0" y="0">’</tspan></text>
  </g>
  <g id="logo">
    <g>
      <path class="cls-1" d="M226.02,53.39c-.58,12.66-1.17,25.32-1.75,37.98-.4,8.71-.78,17.41-1.17,26.12-.52,11.38-1.04,22.76-1.56,34.14-.43,9.3-.87,18.61-1.3,27.91-.16,3.43-.9,11.03-1.11,11.39-.19-.37-2.34-27.2-3.22-40.25-.78-11.53-1.54-23.06-2.32-34.59-.87-12.92-1.74-25.85-2.62-38.77-.48-7.02-.96-14.04-1.45-21.06-.2-2.89,.82-4.09,3.91-4.64,3.23-.57,6.46-1.17,9.68-1.79,2.19-.42,2.96,.14,2.95,2.23,0,.44,0,.88,0,1.32-.01,0-.02,0-.03,0Z"/>
      <path class="cls-1" d="M291.31,56.1c-.4,10.89-.79,21.44-1.17,31.98-.23,6.27-.43,12.54-.65,18.82-.43,12.14-.87,24.29-1.31,36.43-.25,6.99-.52,13.98-.77,20.97-.32,8.55-1.36,26.22-1.56,26.51-.2-.29-1.48-13.73-1.92-20.15-.58-8.38-1.17-16.75-1.75-25.13-.48-6.9-.92-13.8-1.4-20.7-.56-8.14-1.15-16.27-1.72-24.41-.47-6.74-.91-13.48-1.38-20.22-.57-8.3-1.16-16.59-1.74-24.89-.07-1.03-.2-2.06-.31-3.1-.13-1.23,.64-2.09,1.99-2.17,.43-.03,.88-.03,1.29,.07,3.34,.83,6.69,1.64,10.02,2.55,1.79,.49,2.4,1.58,2.39,3.44Z"/>
      <path class="cls-1" d="M250.32,47.63c1.78,0,3.56-.01,5.34,0,1.58,.01,1.94,.32,1.9,1.76-.16,6.43-.35,12.87-.53,19.3-.29,10.31-.57,20.62-.86,30.93-.26,9.11-.52,18.22-.78,27.33-.26,9.03-.52,18.06-.78,27.09-.24,8.39-1.16,25.89-1.38,26.24-.19-.34-2.42-25.73-3.34-38.09-.74-9.93-1.44-19.86-2.18-29.79-.74-9.93-1.51-19.85-2.25-29.78-.65-8.77-1.28-17.55-1.91-26.32-.17-2.31-.38-4.62-.5-6.94-.07-1.32,.4-1.73,1.81-1.74,1.82-.02,3.64,0,5.47,0Z"/>
      <path class="cls-4" d="M175.16,91.62c.26,6.71,.47,13.42,.67,20.14,.34,11.07,.66,22.13,.97,33.2,.22,7.95,.4,15.9,.6,23.86,.26,10.39,.53,20.78,.78,31.17,.27,10.95,.52,21.9,.78,32.85,.02,.95,.16,2.52,.32,3.92,.17,1.48,.36,2.77,.46,2.94,.2-.33,1.32-12.89,1.69-18.84,.56-8.98,1.15-17.95,1.72-26.93,.39-6.1,.75-12.21,1.13-18.31,.57-9.1,1.16-18.19,1.73-27.29,.46-7.34,.91-14.68,1.37-22.02,.58-9.3,1.18-18.59,1.76-27.89,.47-7.58,.93-15.16,1.4-22.74,.21-3.39,.44-6.78,.66-10.17,.01-.16,.04-.32,.03-.48-.03-1.05,0-2.15-1.11-2.79-1.13-.65-2.3-.23-3.15,.43-3.87,3.01-7.75,6.02-11.4,9.25-.72,.64-1.14,2.82-1.18,3.55,0,.08,.57,10.86,.77,16.17Z"/>
      <path class="cls-1" d="M325.05,91.62c-.26,6.71-.47,13.42-.67,20.14-.34,11.07-.66,22.13-.97,33.2-.22,7.95-.4,15.9-.6,23.86-.26,10.39-.53,20.78-.78,31.17-.27,10.95-.52,21.9-.78,32.85-.02,.95-.16,2.52-.32,3.92-.17,1.48-.36,2.77-.46,2.94-.2-.33-1.32-12.89-1.69-18.84-.56-8.98-1.15-17.95-1.72-26.93-.39-6.1-.75-12.21-1.13-18.31-.57-9.1-1.16-18.19-1.73-27.29-.46-7.34-.91-14.68-1.37-22.02-.58-9.3-1.18-18.59-1.76-27.89-.47-7.58-.93-15.16-1.4-22.74-.21-3.39-.44-6.78-.66-10.17-.01-.16-.04-.32-.03-.48,.03-1.05,0-2.15,1.11-2.79,1.13-.65,2.3-.23,3.15,.43,3.87,3.01,7.75,6.02,11.4,9.25,.72,.64,1.14,2.82,1.18,3.55,0,.08-.57,10.86-.77,16.17Z"/>
    </g>
    <g>
      <path class="cls-1" d="M221.48,295.65c18.47,.99,36.73,1.68,54.96-.8,4.2-.57,8.43-1.34,12.2-3.38,4.52-2.45,4.73-5.17,.52-8.18-6.87-4.92-14.97-5.81-23.06-6.29-17.67-1.07-35.24-.05-53.36,3.64,1.82-3.13,4.54-3.82,6.89-4.45,23.19-6.15,46.52-7.19,69.92-1.15,4.16,1.07,7.9,3.08,11.06,6.07,3.56,3.37,3.5,6.51-.44,9.54-3.61,2.78-7.72,4.38-12.08,5.49-20.77,5.31-41.64,5.3-62.57,1.13-1.4-.28-2.69-1.08-4.03-1.64Z"/>
      <path class="cls-1" d="M316.75,267.75c-45.04-14.84-88.87-15.57-133.3,1.41,4.53-6.46,10.55-9.32,16.85-11.58,20.2-7.27,41.2-8.04,62.32-7.11,13.41,.6,26.66,2.53,39.32,7.32,5.38,2.04,10.48,4.61,14.81,9.96Z"/>
    </g>
  </g>
</svg>